<svg id="Layer_1" data-name="Layer 1" xmlns="http://www.w3.org/2000/svg" viewBox="0 0 2911.3 784.17"><defs><style>.cls-1{fill:#113149;}.cls-2{fill:#6fa4f7;}.cls-3{fill:#4880ea;}.cls-4{fill:#5e90f1;}</style></defs><path class="cls-1" d="M923.65,158.42q-19.85-18-19.84-45,0-27.72,19.84-46t52.61-18.27q32.13,0,52,18.27t19.85,46q0,27.09-19.85,45t-52,18Q943.48,176.38,923.65,158.42Zm113.72,50.72V562.57H913.89V209.14Z"/><path class="cls-1" d="M1301,219.22q26.77,14.49,41.27,39.06V209.14h123.48V558.79q0,49.76-18.9,89.77t-58.91,64q-40,23.93-101.11,23.94-81.91,0-131-38.43t-56.07-104.58h121.59a40.51,40.51,0,0,0,18.9,26.46q15.12,9.45,39.06,9.45,63,0,63-70.56V513.43Q1327.79,538,1301,552.49T1238.34,567q-42.22,0-76.55-22.05t-54.18-63.32q-19.84-41.25-19.84-96.07t19.84-95.76q19.85-40.95,54.18-63t76.55-22.05Q1274.25,204.73,1301,219.22ZM1323.7,332q-18.59-19.53-45.67-19.53-27.73,0-46,19.21t-18.27,53.87q0,34,18.27,53.86t46,19.85q27.08,0,45.67-19.53t18.59-54.18Q1342.29,351.52,1323.7,332Z"/><path class="cls-1" d="M1601.53,550.91q-37.5-16.06-59.22-44.1a114.39,114.39,0,0,1-24.26-63.31h119.7q2.51,17,15.75,26.46t32.76,9.45q15.12,0,23.94-6.3t8.82-16.38q0-13.23-14.49-19.53t-47.88-13.86q-37.8-7.56-63-17a107.16,107.16,0,0,1-43.78-30.87q-18.6-21.42-18.59-58a100.54,100.54,0,0,1,17-57q17-25.52,50.09-40.63t79.69-15.12q69.3,0,109,34t46,89.46H1721.54q-3.16-17-14.8-26.15t-31.19-9.13q-15.12,0-23,5.67t-7.88,15.75q0,12.6,14.49,19.21t46.62,13.55q38.42,8.19,64,18.27t44.73,32.44q19.2,22.37,19.21,60.8a91.63,91.63,0,0,1-18,55.44q-18,24.57-51,38.74T1686.89,567Q1639,567,1601.53,550.91Z"/><path class="cls-1" d="M2102.69,457.36V562.57h-53.55q-135.46,0-135.45-134.19V311.83h-43.47V209.14h43.47V123.46H2037.8v85.68h64.26V311.83H2037.8V430.27q0,14.49,6.61,20.79t22.37,6.3Z"/><path class="cls-1" d="M2333.26,223.63A122.2,122.2,0,0,1,2396.89,206V337.66h-34.65q-40.32,0-59.85,15.75t-19.53,54.81V562.57H2159.38V209.14h123.48v62.37Q2303.65,241.27,2333.26,223.63Z"/><path class="cls-1" d="M2821.5,209.14,2597.23,730.78H2463l84.41-183.33L2402.56,209.14h137.33l74.34,200.34,71.83-200.34Z"/><path class="cls-2" d="M47.73,302.58c.91-7.59,5.27-7,10.33-7H461.48a179,179,0,0,1,27.17,2c61.68,9.32,97.68,77.75,71.57,134.49-17.83,38.88-49.51,57.68-91.89,57.78-111.23.28-222.47.13-333.7.16L34.38,490c-6.79,0-10.86-4.08-10-10.78C29.06,444.41,43.82,335.61,47.73,302.58Z"/><path class="cls-3" d="M287,185.92c5.05-38.55,10.19-77.09,15-115.64.66-5.32,2-8.38,8.1-8.3,70,1,140.06-3.69,209.77,2.79,134.91,12.56,252.88,116.9,284,248.77,41.83,177.51-63.2,352.64-238.68,398.25-29.86,7.76-60.3,10.48-90.92,10.67-81.16.43-162.32-.16-243.48.45-12.41.09-14.23-3.84-12.7-14.75,5.14-36.42,9.54-72.94,14.23-109.43q118,0,236-.1a362,362,0,0,0,38.25-1.94c46.8-5,86.82-24.91,119.15-57.59,44.79-45.25,65.36-100.38,59.75-165.09-4.37-50.5-24.25-93.5-59.64-128.46-39.43-39-88-59.17-143.82-59.52C417,185.67,352,185.93,287,185.92Z"/><path class="cls-4" d="M287,186.09c65,0,130-.25,195,.13,55.84.34,104.35,20.54,143.78,59.47,35.39,35,55.28,78,59.64,128.46C691,438.86,670.45,494,625.66,539.24c-32.34,32.66-72.34,52.55-119.16,57.59a361.76,361.76,0,0,1-38.24,1.94q-118,.18-236,.1c-33.13,0-66.25-.24-99.37.09-8.42.09-12.29-.33-10.68-11.11,5.07-32.66,8.61-65.55,12.74-98.34q166.43,0,332.85-.16c42.26-.1,73.82-18.85,91.65-57.63,26.09-56.6-9.86-124.85-71.39-134.14a177.8,177.8,0,0,0-27.07-2H160.53c4.11-31.1,8.64-62.15,12.14-93.32,1.28-11.49,4-17,17.56-16.48C222.45,187,254.74,186.11,287,186.09Z"/></svg>