<svg id="Layer_1" data-name="Layer 1" xmlns="http://www.w3.org/2000/svg" viewBox="0 0 833.36 784.34">
    <defs>
        <style>
            .cls-1 {
                fill: #6fa4f7;
            }

            .cls-2 {
                fill: #4880ea;
            }

            .cls-3 {
                fill: #5e90f1;
            }
        </style>
    </defs>
    <path class="cls-1"
        d="M72.14,295.1c.76-6.38,4.43-5.92,8.69-5.92H420.15A151.27,151.27,0,0,1,443,290.91c51.88,7.84,82.16,65.39,60.2,113.12-15,32.7-41.65,48.51-77.29,48.6-93.56.23-187.12.11-280.68.13l-84.32-.05c-5.71,0-9.14-3.43-8.39-9.07C56.43,414.4,68.85,322.89,72.14,295.1Z" />
    <path class="cls-2"
        d="M273.35,196.9c4.26-32.5,8.59-65,12.68-97.51.56-4.49,1.67-7.07,6.83-7,59,.83,118.11-3.11,176.9,2.35C583.52,105.33,683,193.32,709.2,304.52c35.28,149.69-53.29,297.37-201.27,335.83-25.18,6.55-50.85,8.84-76.67,9-68.44.36-136.88-.13-205.32.38-10.46.08-12-3.24-10.71-12.44,4.34-30.71,8.05-61.51,12-92.28q99.48,0,199-.08a306,306,0,0,0,32.25-1.64c39.47-4.25,73.21-21,100.48-48.56,37.77-38.16,55.11-84.65,50.38-139.22-3.68-42.58-20.45-78.84-50.29-108.32C525.8,214.33,484.86,197.29,437.77,197,383,196.69,328.16,196.91,273.35,196.9Z" />
    <path class="cls-3"
        d="M273.35,196.9c54.81,0,109.61-.21,164.42.11,47.09.28,88,17.32,121.25,50.15,29.84,29.48,46.61,65.74,50.29,108.32C614,410.05,596.7,456.54,558.93,494.7c-27.27,27.54-61,44.31-100.48,48.56a306,306,0,0,1-32.25,1.64q-99.48.15-199,.08c-27.94,0-55.87-.2-83.8.08-7.1.07-10.36-.28-9-9.37,4.27-27.54,7.26-55.28,10.74-82.93,93.56,0,187.12.1,280.68-.13,35.64-.09,62.25-15.9,77.29-48.6,22-47.73-8.32-105.28-60.2-113.12a151.27,151.27,0,0,0-22.83-1.72H166.7c3.47-26.22,7.29-52.41,10.24-78.69,1.08-9.69,3.34-14.35,14.81-13.9C218.92,197.65,246.15,196.91,273.35,196.9Z" />
</svg>