<svg id="Layer_1" data-name="Layer 1" xmlns="http://www.w3.org/2000/svg" viewBox="0 0 539.22 128.35"><defs><style>.cls-1{fill:#6fa4f7;}.cls-2{fill:#4880ea;}.cls-3{fill:#5e90f1;}.cls-4{fill:#113149;}</style></defs><path class="cls-1" d="M225,49.53c.16-1.34.93-1.24,1.83-1.24h71.34a32.25,32.25,0,0,1,4.81.36c10.91,1.65,17.27,13.75,12.65,23.79-3.15,6.87-8.75,10.19-16.25,10.21q-29.5.07-59,0H222.61a1.58,1.58,0,0,1-1.76-1.91C221.67,74.62,224.28,55.38,225,49.53Z"/><path class="cls-2" d="M267.28,28.89c.89-6.84,1.8-13.67,2.66-20.51.12-.94.36-1.48,1.44-1.47,12.41.18,24.83-.65,37.19.5,23.92,2.22,44.84,20.72,50.35,44.1a58.57,58.57,0,0,1-42.32,70.61A65,65,0,0,1,300.48,124c-14.39.08-28.78,0-43.17.08-2.2,0-2.52-.68-2.25-2.61.91-6.46,1.69-12.93,2.52-19.4l41.84,0a66.63,66.63,0,0,0,6.78-.34,34.28,34.28,0,0,0,21.13-10.21,35.53,35.53,0,0,0,10.59-29.28,36.26,36.26,0,0,0-36.07-33.32C290.33,28.84,278.8,28.89,267.28,28.89Z"/><path class="cls-3" d="M267.28,28.89c11.52,0,23-.05,34.57,0a36.24,36.24,0,0,1,36.06,33.32A35.54,35.54,0,0,1,327.32,91.5a34.21,34.21,0,0,1-21.12,10.21,64.13,64.13,0,0,1-6.78.34q-20.93,0-41.85,0c-5.87,0-11.74,0-17.61,0-1.5,0-2.18-.06-1.9-2,.9-5.79,1.53-11.63,2.26-17.44q29.51,0,59,0c7.49,0,13.08-3.34,16.25-10.21,4.62-10-1.75-22.14-12.66-23.79a32.12,32.12,0,0,0-4.8-.36H244.85c.73-5.51,1.54-11,2.16-16.55.22-2,.7-3,3.11-2.92C255.83,29,261.56,28.89,267.28,28.89Z"/><path class="cls-4" d="M26.84,21.86V70.94q0,6.84,3.19,10.56t9.66,3.72q6.47,0,9.77-3.78t3.31-10.5V21.86H76.29V70.94q0,11.64-4.93,19.86A31.34,31.34,0,0,1,58,103.16a42.14,42.14,0,0,1-18.77,4.14,39.87,39.87,0,0,1-18.42-4.14A30,30,0,0,1,8.07,90.86Q3.44,82.7,3.44,70.94V21.86Z"/><path class="cls-4" d="M91.58,41.72A37.5,37.5,0,0,1,106.4,26.48,43.88,43.88,0,0,1,128.48,21q15.84,0,26.64,8.46t13.92,23H143.72a17,17,0,0,0-6.3-7.32,17.14,17.14,0,0,0-9.3-2.52,16.1,16.1,0,0,0-13,5.82q-4.86,5.82-4.86,15.54t4.86,15.66a16.1,16.1,0,0,0,13,5.82,17.14,17.14,0,0,0,9.3-2.52,17,17,0,0,0,6.3-7.32H169q-3.12,14.52-13.92,23t-26.64,8.46a43.88,43.88,0,0,1-22.08-5.46A37.5,37.5,0,0,1,91.58,86.36,46.79,46.79,0,0,1,86.36,64,46.54,46.54,0,0,1,91.58,41.72Z"/><path class="cls-4" d="M203.72,21.86v84.6H180.2V21.86Z"/><path class="cls-4" d="M396.32,101.72a41.58,41.58,0,0,1-15.78-15.48,43.33,43.33,0,0,1-5.82-22.38,43.33,43.33,0,0,1,5.82-22.38,41.14,41.14,0,0,1,15.78-15.42,46.08,46.08,0,0,1,43.74,0,40.83,40.83,0,0,1,15.66,15.42,43.68,43.68,0,0,1,5.76,22.38,43.68,43.68,0,0,1-5.76,22.38A41.15,41.15,0,0,1,440,101.72a45.53,45.53,0,0,1-43.68,0Zm36.06-22.14q5.22-5.88,5.22-15.72,0-10.08-5.22-15.9t-14.22-5.82q-9.12,0-14.28,5.82t-5.16,15.9q0,10,5.16,15.78t14.28,5.82Q427.16,85.46,432.38,79.58Z"/><path class="cls-4" d="M479.72,100.28q-9.48-7-10.2-20.1H494.6q.36,4.44,2.64,6.48a9.55,9.55,0,0,0,11.22.42,5.36,5.36,0,0,0,2.1-4.5,6.36,6.36,0,0,0-3.48-5.76,61.33,61.33,0,0,0-11.28-4.56,101.59,101.59,0,0,1-13.38-5.34,25.67,25.67,0,0,1-8.88-7.56q-3.78-5-3.78-13a23.73,23.73,0,0,1,4.08-14,25.25,25.25,0,0,1,11.28-8.82,42.09,42.09,0,0,1,16.32-3q14.76,0,23.58,6.9t9.42,19.38H508.88a7.54,7.54,0,0,0-2.34-5.76,8.4,8.4,0,0,0-5.7-1.92,6.1,6.1,0,0,0-4.32,1.56,5.76,5.76,0,0,0-1.68,4.44,5.48,5.48,0,0,0,1.86,4.14,17.07,17.07,0,0,0,4.62,3q2.76,1.26,8.16,3.18a100.26,100.26,0,0,1,13.26,5.46,27.09,27.09,0,0,1,9,7.56q3.78,4.86,3.78,12.3a24.9,24.9,0,0,1-3.78,13.56,26,26,0,0,1-10.92,9.48A38.1,38.1,0,0,1,504,107.3Q489.2,107.3,479.72,100.28Z"/></svg>