<svg id="Layer_1" data-name="Layer 1" xmlns="http://www.w3.org/2000/svg" xmlns:xlink="http://www.w3.org/1999/xlink" viewBox="0 0 3211.83 1408.7"><defs><style>.cls-1,.cls-2,.cls-3,.cls-4,.cls-5,.cls-6,.cls-7{stroke:#fff;}.cls-1,.cls-10,.cls-2,.cls-3,.cls-4,.cls-5,.cls-6,.cls-7,.cls-9{stroke-miterlimit:10;}.cls-1,.cls-2,.cls-3{stroke-width:40px;}.cls-1{fill:url(#linear-gradient);}.cls-2{fill:url(#linear-gradient-2);}.cls-3{fill:url(#linear-gradient-3);}.cls-4,.cls-5,.cls-6{stroke-width:20px;}.cls-4{fill:url(#linear-gradient-4);}.cls-5{fill:url(#linear-gradient-5);}.cls-6{fill:url(#linear-gradient-6);}.cls-11,.cls-7{fill:#4d4d4d;}.cls-7,.cls-9{stroke-width:25px;}.cls-8{fill:#fff;}.cls-10,.cls-9{fill:none;stroke:#4d4d4d;}.cls-10{stroke-width:15px;}</style><linearGradient id="linear-gradient" x1="2720.17" y1="98.34" x2="2720.17" y2="1219.98" gradientUnits="userSpaceOnUse"><stop offset="0" stop-color="#d4b258"/><stop offset="0.4" stop-color="#b39751"/><stop offset="1" stop-color="#7a6944"/></linearGradient><linearGradient id="linear-gradient-2" x1="2716.52" y1="240.9" x2="2716.52" y2="1219.3" gradientUnits="userSpaceOnUse"><stop offset="0" stop-color="#0f8af7"/><stop offset="0.66" stop-color="#1061ad"/><stop offset="1" stop-color="#104e8c"/></linearGradient><linearGradient id="linear-gradient-3" x1="2716.52" y1="391.31" x2="2716.52" y2="1219.98" gradientUnits="userSpaceOnUse"><stop offset="0" stop-color="#007258"/><stop offset="0.33" stop-color="#006f56"/><stop offset="0.6" stop-color="#02654e"/><stop offset="0.84" stop-color="#055441"/><stop offset="1" stop-color="#074434"/></linearGradient><linearGradient id="linear-gradient-4" x1="2594.46" y1="1257.14" x2="2594.46" y2="1368.26" gradientUnits="userSpaceOnUse"><stop offset="0" stop-color="#d4b258"/><stop offset="0.23" stop-color="#d1af57"/><stop offset="0.44" stop-color="#c6a755"/><stop offset="0.63" stop-color="#b49851"/><stop offset="0.82" stop-color="#9b844b"/><stop offset="1" stop-color="#7b6a44"/><stop offset="1" stop-color="#7a6944"/></linearGradient><linearGradient id="linear-gradient-5" x1="2838.57" y1="1257.09" x2="2838.57" y2="1368.2" gradientUnits="userSpaceOnUse"><stop offset="0" stop-color="#0f8af7"/><stop offset="0.16" stop-color="#0f87f1"/><stop offset="0.38" stop-color="#0f7de0"/><stop offset="0.62" stop-color="#0f6ec5"/><stop offset="0.89" stop-color="#10589e"/><stop offset="1" stop-color="#104e8c"/></linearGradient><linearGradient id="linear-gradient-6" x1="2716.48" y1="1257.09" x2="2716.48" y2="1368.2" gradientUnits="userSpaceOnUse"><stop offset="0" stop-color="#007258"/><stop offset="0.28" stop-color="#016d54"/><stop offset="0.62" stop-color="#035d48"/><stop offset="1" stop-color="#074434"/></linearGradient></defs><path class="cls-1" d="M3133.47,655.55c.08-43.88.16-87.76-.21-131.64-.27-31.53-13-58.13-36.37-79.58-.93-.86-1.82-1.78-2.74-2.66L3017,367q-28.4-27.63-56.65-55.43-97.59-96.28-194.61-193.13c-13.39-13.27-28.39-20-43-20-1.12,0-2.24,0-3.35-.06-15.08-.48-30.68,6.18-44.53,19.93q-97.28,96.54-194.47,193.13-14.55,14.35-29.17,28.64l-2.64,2.56-102.41,99.15c-.92.89-1.81,1.8-2.75,2.66-23.38,21.46-36.12,48.05-36.39,79.58-.52,61.42-.15,122.84-.15,184.27V722.2h.5q.06,59.87.27,119.71h-.84V1167.5a52.48,52.48,0,0,0,52.48,52.48H3081a52.48,52.48,0,0,0,52.48-52.48V841.91h-.24Q3133.52,748.73,3133.47,655.55Z"/><path class="cls-2" d="M3129.49,1017.81q.36-109.84.33-219.7c.08-43.88.16-87.76-.21-131.64-.27-31.54-13-58.13-36.36-79.58-.94-.86-1.83-1.78-2.75-2.66l-77.12-74.72q-28.4-27.63-56.65-55.43Q2859.14,357.79,2762.12,261c-13.39-13.27-28.39-20-43-20-1.12,0-2.24,0-3.35-.06-15.08-.48-30.68,6.18-44.53,19.93Q2574,357.39,2476.78,454q-14.55,14.36-29.17,28.64l-2.64,2.56-102.41,99.15c-.92.89-1.81,1.8-2.75,2.66-23.38,21.46-36.12,48-36.39,79.58-.52,61.42-.15,122.84-.15,184.27v13.92h.5q.08,76.53.37,153v149a52.48,52.48,0,0,0,52.48,52.48h720.79a52.48,52.48,0,0,0,52.48-52.48v-149Z"/><path class="cls-3" d="M3129.56,816.88c-.26-31.53-13-58.12-36.36-79.57-.94-.87-1.83-1.78-2.74-2.67l-77.12-74.71q-28.41-27.64-56.66-55.43-97.59-96.29-194.61-193.13c-13.89-13.78-29.54-20.46-44.66-19.95-15.6-1.05-31.84,5.59-46.21,19.85-64.84,64.35-129.46,128.94-194.47,193.12q-14.54,14.37-29.16,28.64l-2.65,2.57-102.41,99.15c-.91.88-1.8,1.8-2.74,2.66-23.38,21.45-36.12,48-36.39,79.58-.52,61.41.18,198.19.35,198.19q.08,76.53.37,153c.09,28.45,16,52,51.56,51.66,67.41-.61,134.82-.57,202.24-.47v.16h202.71c1.51,0,3.14.07,5,.07q35.36,0,70.72-.07h82.52v-.11c53,0,106,0,159,.52,35.59.32,51.51-23.21,51.6-51.65q.36-109.9.34-219.81C3129.85,904.64,3129.94,860.76,3129.56,816.88Z"/><path d="M187.75,1117.26h-48.3V935.82H76.15V897.07h175.5v38.75h-63.9Z"/><path d="M304.74,897.07h142.5v38.75h-94.5v51h85.2v39.06h-85.2v51H449v40.32H304.74Z"/><path d="M581.94,1024.33l-16.8,16.38v76.55h-49.2V897.07h49.2v89.78l74.4-89.78h58.8l-81,95.13,88.8,125.06H647Z"/><path d="M756.84,897.07h54.3l87.3,164.12s-3-14.81-3-42.53V897.07h42.9v220.19h-56.4l-85.5-162.54a265.48,265.48,0,0,1,3,39.06v123.48h-42.6Z"/><path d="M1105.14,1120.41c-70.2,0-105.9-47.88-105.9-113.72,0-70.24,39.9-112.77,106.2-112.77,68.4,0,106.2,43.47,106.2,112.46C1211.64,1075.05,1172,1120.41,1105.14,1120.41Zm.6-186.8c-38.4,0-57.9,27.09-57.9,72.45,0,44.73,20.1,74.66,57.6,74.66,40.2,0,57.3-30.24,57.3-74.34C1162.74,961,1142.94,933.61,1105.74,933.61Z"/><path d="M1272.84,897.07h48v179.87h96.9v40.32h-144.9Z"/><path d="M1564.44,1120.41c-70.2,0-105.9-47.88-105.9-113.72,0-70.24,39.9-112.77,106.2-112.77,68.4,0,106.2,43.47,106.2,112.46C1670.94,1075.05,1631.34,1120.41,1564.44,1120.41Zm.6-186.8c-38.4,0-57.9,27.09-57.9,72.45,0,44.73,20.1,74.66,57.6,74.66,40.2,0,57.3-30.24,57.3-74.34C1622,961,1602.24,933.61,1565,933.61Z"/><path d="M1721.94,1006.06c0-69,34.5-112.14,108-112.14,52.8,0,83.1,23,95.1,58.91l-44.4,13.86c-6-17.33-22.2-33.39-50.4-33.39-42,0-59.7,29-59.7,72.76,0,44.1,18.3,75.29,60.9,75.29,23.7,0,44.1-8.19,54.6-16.7V1036.3h-48.9V999.45h92.4V1082c-21.9,21.73-57.6,38.43-100.2,38.43C1753.14,1120.41,1721.94,1071.58,1721.94,1006.06Z"/><path d="M2000.64,897.07h48v220.19h-48Z"/><path d="M157.12,336.43,137,357v96.23h-59V176.45h59V289.3l89.28-112.85H296.8L199.6,296,306.16,453.25H235.24Z"/><path d="M487.24,457.21c-84.24,0-127.08-60.19-127.08-143,0-88.3,47.88-141.76,127.44-141.76,82.08,0,127.44,54.64,127.44,141.37C615,400.18,567.52,457.21,487.24,457.21ZM488,222.38c-46.08,0-69.48,34.06-69.48,91.08,0,56.23,24.12,93.85,69.12,93.85,48.24,0,68.76-38,68.76-93.45C556.36,256.83,532.6,222.38,488,222.38Z"/><path d="M765.88,453.25h-57.6V176.45H813c64.08,0,95.4,32.47,95.4,84.74,0,47.12-20.16,72.47-51.12,83.16l64.08,108.9H856.6L801.16,351.08H765.88Zm41-227.7h-41v76h41.76c29.52,0,42.12-15.44,42.12-38.81C849.76,237.83,834.64,225.55,806.92,225.55Z"/><path d="M1015.36,176.45H1073v276.8h-57.6Z"/><path d="M1289,453.25H1185.27V176.45h92.88c77.76,0,133.2,42.76,133.2,137C1411.35,404.54,1357.71,453.25,1289,453.25Zm-11.88-228.1h-34.2V404.54h41.4c39.24,0,68.76-31.68,68.76-91.08C1353,251.69,1322.07,225.15,1277.07,225.15Z"/><path d="M1619.43,457.21c-84.24,0-127.08-60.19-127.08-143,0-88.3,47.88-141.76,127.44-141.76,82.08,0,127.44,54.64,127.44,141.37C1747.23,400.18,1699.71,457.21,1619.43,457.21Zm.72-234.83c-46.08,0-69.48,34.06-69.48,91.08,0,56.23,24.12,93.85,69.12,93.85,48.24,0,68.76-38,68.76-93.45C1688.55,256.83,1664.79,222.38,1620.15,222.38Z"/><path d="M1898.06,453.25h-57.6V176.45h104.76c64.09,0,95.41,32.47,95.41,84.74,0,47.12-20.16,72.47-51.12,83.16l64.08,108.9h-64.81l-55.43-102.17h-35.29Zm41-227.7h-41v76h41.76c29.53,0,42.12-15.44,42.12-38.81C1981.94,237.83,1966.82,225.55,1939.1,225.55Z"/><path d="M78.85,712.2V493h76.8V706.15c0,55.44,24.48,81.15,67.68,81.15,44.16,0,66.24-26.72,66.24-83.67V493h77.28V708.67c0,97.27-55.2,141.63-145,141.63C136,850.3,78.85,809.47,78.85,712.2Z"/><path d="M646.21,845.26H568.93V555H467.65V493h280.8v62H646.21Z"/><path d="M850.2,493H927v352.3H850.2Z"/><path d="M1067.15,493H1144V780.74h155v64.52H1067.15Z"/><path d="M1411.79,493h76.8v352.3h-76.8Z"/><path d="M1768,845.26h-77.28V555H1589.39V493h280.8v62H1768Z"/><path d="M1971.94,493h76.8v352.3h-76.8Z"/><path d="M154.09,1318h-8.28V1170.36H92.68v-6.89H207.45v6.89H154.09Z"/><path d="M292.09,1163.47h86.25v7.12h-78V1235h71.76v6.9H300.37v69h81.42V1318h-89.7Z"/><path d="M486.67,1318h-8.28V1163.47h45.54c32.2,0,50.6,15.18,50.6,42.31,0,20.24-9.43,39.56-39.79,43.24L581,1318h-9.2l-44.85-68.54H486.67Zm35.88-147.66H486.67V1243h36.8c29.21,0,42.78-13.34,42.78-37.26C566.25,1184.39,552,1170.36,522.55,1170.36Z"/><path d="M673.2,1163.47h86.24v7.12h-78V1235h71.75v6.9H681.48v69h81.41V1318H673.2Z"/><path d="M859.49,1163.47h11l96.14,146s-.46-7.82-.46-19.32V1163.47h7.59V1318h-11l-95.68-146.28s.23,5.06.23,12.65V1318h-7.82Z"/><path d="M1065.8,1238.67c0-45.54,24.84-77.51,72.45-77.51,36.34,0,53.59,15.41,62.56,34.5l-7.82,2.53c-9.2-18.16-25.53-30.12-54.74-30.12-42.09,0-64.17,28.28-64.17,70.6,0,43.24,20.7,74.29,67.85,74.29,26,0,43.7-9.66,54.28-18.4V1249h-52.44v-7.36h60.49v55.66a94.4,94.4,0,0,1-62.79,23C1090.41,1320.32,1065.8,1287.43,1065.8,1238.67Z"/><path d="M1294,1238.67c0-45.54,24.84-77.51,72.45-77.51,36.34,0,53.59,15.41,62.56,34.5l-7.82,2.53c-9.2-18.16-25.53-30.12-54.74-30.12-42.09,0-64.17,28.28-64.17,70.6,0,43.24,20.7,74.29,67.85,74.29,26,0,43.7-9.66,54.28-18.4V1249h-52.44v-7.36h60.49v55.66a94.4,94.4,0,0,1-62.79,23C1318.57,1320.32,1294,1287.43,1294,1238.67Z"/><path d="M1525.8,1318h-8.51l57.5-154.55h11L1646.08,1318h-8.74l-19.09-49.45h-74.51Zm54.51-149-12.42,33.57-21.39,58.88h69l-22.77-59.11Z"/><path d="M1730.49,1163.47h11l96.14,146s-.46-7.82-.46-19.32V1163.47h7.59V1318h-11l-95.68-146.28s.23,5.06.23,12.65V1318h-7.82Z"/><path d="M1946,1263.05v-99.58h8.28v99.35c0,33.35,20.24,49.91,46.46,49.91,30.59,0,46-16.33,46-51.75v-97.51h8v98c0,40.25-19.09,58.88-54,58.88C1969.92,1320.32,1946,1302.15,1946,1263.05Z"/><circle class="cls-4" cx="2594.46" cy="1312.7" r="55.56"/><circle class="cls-5" cx="2838.57" cy="1312.64" r="55.56"/><circle class="cls-6" cx="2716.48" cy="1312.64" r="55.56"/><path class="cls-7" d="M3040,1159.11q-211.85,0-423.69.11c7.72,9.76,15.4,19.56,23.16,29.29,12.27,15.37,28,22.82,48.15,22.34,14.11-.34,283.12.72,300.2-.49,12-.85,22.43-5.21,30.95-13.53C3029.78,1186,3042.84,1159.1,3040,1159.11Z"/><path class="cls-7" d="M3124,1085.39c-1-28.43-24.93-56-59.24-65.64-13.22-.15-502.56-.34-513.25-.19,6.18,5.82,12.88,11.19,18.45,17.54,30.45,34.7,34.94,73.21,16.52,114.85-.33.74,6.65,6.81,8.39,6.81q219,.06,437.92,0C3085.27,1163.14,3125.34,1123.66,3124,1085.39Z"/><path class="cls-7" d="M2756.32,1017c11.71-.2,22.22-8-1.43-12.62-48.1-9.39-134.2-26.47-209.92-69.81-96-55-151.92-138.75-184.17-201.19q-15.51,16-31,32c33,71.81,91.16,164.79,193.32,230.06q19.32,12.33,38.46,22.08C2588.92,1017,2698.46,1018,2756.32,1017Z"/><circle class="cls-8" cx="2505.02" cy="1105.94" r="105.57"/><ellipse class="cls-9" cx="2505.02" cy="1105.94" rx="79.57" ry="80.07"/><ellipse class="cls-10" cx="2505.06" cy="1105.99" rx="44.37" ry="44.65"/><path class="cls-11" d="M2576.52,1137l-51.81-35.15a19.32,19.32,0,0,0-11.29-14.9q-2.58-28.77-5.17-57.54a3.55,3.55,0,1,0-7.09,0q-2,29-4,58a19.32,19.32,0,0,0-10.56,15.72l-50.84,36a3.59,3.59,0,0,0-1.3,4.87,3.54,3.54,0,0,0,4.84,1.31l53.58-26.32a19.08,19.08,0,0,0,26.53-.77l53.58,25a3.54,3.54,0,0,0,4.84-1.31A3.59,3.59,0,0,0,2576.52,1137Z"/></svg>